<svg xmlns="http://www.w3.org/2000/svg" xmlns:xlink="http://www.w3.org/1999/xlink" version="1.1" id="Layer_1" x="0px" y="0px" width="100px" height="100px" viewBox="5.0 -10.0 100.0 135.0" enable-background="new 0 0 100 100" xml:space="preserve">
<path fill="#000000" d="M30.312,76.975c0,3.386,2.358,5.156,4.688,5.156s4.688-1.771,4.688-5.156c0-2.267,1.412-3.281,2.812-3.281  s2.812,1.014,2.812,3.281c0,3.386,2.358,5.156,4.688,5.156s4.688-1.771,4.688-5.156c0-2.267,1.412-3.281,2.812-3.281  s2.812,1.014,2.812,3.281c0,3.386,2.358,5.156,4.688,5.156s4.688-1.771,4.688-5.156l0.021-33.728c0-10.809-8.748-19.605-19.533-19.7  c-0.053-0.009-0.099-0.031-0.154-0.031c-10.867,0-19.709,8.842-19.709,19.709V76.975z M49.918,25.396  c0.027,0.002,0.053,0.017,0.082,0.017c9.835,0,17.834,8,17.834,17.834l-0.021,33.728c0,2.267-1.412,3.281-2.812,3.281  s-2.812-1.014-2.812-3.281c0-6.771-9.375-6.771-9.375,0c0,2.267-1.412,3.281-2.812,3.281s-2.812-1.014-2.812-3.281  c0-6.771-9.375-6.771-9.375,0c0,2.267-1.412,3.281-2.812,3.281s-2.812-1.014-2.812-3.281v-33.75  C32.188,33.425,40.131,25.453,49.918,25.396z"/>
<path fill="#000000" d="M41.562,56.328c0,0.518,0.419,0.938,0.938,0.938h8.438v2.812c0,2.067,1.681,3.75,3.75,3.75  s3.75-1.683,3.75-3.75v-3.75c0-0.518-0.419-0.938-0.938-0.938h-15C41.981,55.391,41.562,55.81,41.562,56.328z M54.688,61.953  c-1.033,0-1.875-0.84-1.875-1.875v-2.812h3.75v2.812C56.562,61.113,55.721,61.953,54.688,61.953z"/>
<path fill="#000000" d="M38.087,51.366c0.184,0.183,0.423,0.274,0.663,0.274s0.479-0.092,0.663-0.274l1.212-1.212l1.212,1.212  c0.184,0.183,0.423,0.274,0.663,0.274s0.479-0.092,0.663-0.274c0.366-0.366,0.366-0.96,0-1.326l-1.212-1.212l1.212-1.212  c0.366-0.366,0.366-0.96,0-1.326s-0.96-0.366-1.326,0l-1.212,1.212l-1.212-1.212c-0.366-0.366-0.96-0.366-1.326,0  s-0.366,0.96,0,1.326l1.212,1.212l-1.212,1.212C37.721,50.406,37.721,51,38.087,51.366z"/>
<path fill="#000000" d="M56.837,51.366c0.184,0.183,0.423,0.274,0.663,0.274s0.479-0.092,0.663-0.274l1.212-1.212l1.212,1.212  c0.184,0.183,0.423,0.274,0.663,0.274s0.479-0.092,0.663-0.274c0.366-0.366,0.366-0.96,0-1.326l-1.212-1.212l1.212-1.212  c0.366-0.366,0.366-0.96,0-1.326s-0.96-0.366-1.326,0l-1.212,1.212l-1.212-1.212c-0.366-0.366-0.96-0.366-1.326,0  s-0.366,0.96,0,1.326l1.212,1.212l-1.212,1.212C56.471,50.406,56.471,51,56.837,51.366z"/>
<text x="0.0" y="117.5" font-size="5.0" font-weight="bold" font-family="Helvetica Neue, Helvetica, Arial-Unicode, Arial, Sans-serif" fill="#000000">Created by Julien Deveaux</text><text x="0.0" y="122.5" font-size="5.0" font-weight="bold" font-family="Helvetica Neue, Helvetica, Arial-Unicode, Arial, Sans-serif" fill="#000000">from the Noun Project</text></svg>